<svg width="24" height="24" viewBox="0 0 24 24" fill="none" xmlns="http://www.w3.org/2000/svg">
<path d="M16.5455 20.3637V18.5455C16.5455 17.5811 16.1623 16.6562 15.4804 15.9742C14.7984 15.2923 13.8735 14.9092 12.9091 14.9092H5.63636C4.67194 14.9092 3.74702 15.2923 3.06507 15.9742C2.38312 16.6562 2 17.5811 2 18.5455V20.3637" stroke="white" stroke-opacity="0.3" stroke-width="2" stroke-linecap="round" stroke-linejoin="round"/>
<path d="M9.27272 11.2727C11.281 11.2727 12.9091 9.64467 12.9091 7.63636C12.9091 5.62806 11.281 4 9.27272 4C7.26441 4 5.63635 5.62806 5.63635 7.63636C5.63635 9.64467 7.26441 11.2727 9.27272 11.2727Z" stroke="white" stroke-opacity="0.3" stroke-width="2" stroke-linecap="round" stroke-linejoin="round"/>
<path d="M22 20.3642V18.546C21.9994 17.7403 21.7312 16.9576 21.2376 16.3208C20.744 15.6841 20.0528 15.2293 19.2727 15.0278" stroke="white" stroke-opacity="0.3" stroke-width="2" stroke-linecap="round" stroke-linejoin="round"/>
<path d="M15.6364 4.11914C16.4185 4.31941 17.1118 4.77432 17.6069 5.41215C18.102 6.04998 18.3708 6.83444 18.3708 7.64187C18.3708 8.4493 18.102 9.23376 17.6069 9.87159C17.1118 10.5094 16.4185 10.9643 15.6364 11.1646" stroke="white" stroke-opacity="0.3" stroke-width="2" stroke-linecap="round" stroke-linejoin="round"/>
</svg>
