<svg width="50" height="13" viewBox="0 0 50 13" fill="none" xmlns="http://www.w3.org/2000/svg">
<path d="M0.264 0.672H2.28V10.176H7.096V12H0.264V0.672ZM8.56088 0.672H16.0649V2.496H10.5769V5.28H15.7769V7.104H10.5769V10.176H16.3529V12H8.56088V0.672ZM22.0061 0.672H23.7501L28.6301 12H26.3261L25.2701 9.408H20.3581L19.3341 12H17.0781L22.0061 0.672ZM24.5661 7.68L22.8221 3.072L21.0461 7.68H24.5661ZM29.889 0.672H34.353C35.0997 0.672 35.8197 0.789333 36.513 1.024C37.2063 1.248 37.8197 1.59467 38.353 2.064C38.8863 2.53333 39.313 3.12533 39.633 3.84C39.953 4.544 40.113 5.376 40.113 6.336C40.113 7.30667 39.9263 8.14933 39.553 8.864C39.1903 9.568 38.7157 10.1547 38.129 10.624C37.553 11.0827 36.9077 11.4293 36.193 11.664C35.489 11.888 34.7957 12 34.113 12H29.889V0.672ZM33.409 10.176C34.0383 10.176 34.6303 10.1067 35.185 9.968C35.7503 9.81867 36.241 9.59467 36.657 9.296C37.073 8.98667 37.3983 8.592 37.633 8.112C37.8783 7.62133 38.001 7.02933 38.001 6.336C38.001 5.65333 37.8943 5.06667 37.681 4.576C37.4677 4.08533 37.169 3.69067 36.785 3.392C36.4117 3.08267 35.9637 2.85867 35.441 2.72C34.929 2.57067 34.3637 2.496 33.745 2.496H31.905V10.176H33.409ZM47.5816 3.104C47.3683 2.79467 47.0803 2.57067 46.7176 2.432C46.3656 2.28267 45.9923 2.208 45.5976 2.208C45.363 2.208 45.1336 2.23467 44.9096 2.288C44.6963 2.34133 44.499 2.42667 44.3176 2.544C44.147 2.66133 44.0083 2.816 43.9016 3.008C43.795 3.18933 43.7416 3.408 43.7416 3.664C43.7416 4.048 43.875 4.34133 44.1416 4.544C44.4083 4.74667 44.739 4.92267 45.1336 5.072C45.5283 5.22133 45.9603 5.36533 46.4296 5.504C46.899 5.64267 47.331 5.83467 47.7256 6.08C48.1203 6.32533 48.451 6.65067 48.7176 7.056C48.9843 7.46133 49.1176 8 49.1176 8.672C49.1176 9.28 49.0056 9.81333 48.7816 10.272C48.5576 10.72 48.2536 11.0933 47.8696 11.392C47.4963 11.6907 47.059 11.9147 46.5576 12.064C46.0563 12.2133 45.5283 12.288 44.9736 12.288C44.2696 12.288 43.5923 12.1707 42.9416 11.936C42.291 11.7013 41.731 11.3067 41.2616 10.752L42.7816 9.28C43.027 9.65333 43.347 9.94667 43.7416 10.16C44.147 10.3627 44.5736 10.464 45.0216 10.464C45.2563 10.464 45.491 10.432 45.7256 10.368C45.9603 10.304 46.1736 10.208 46.3656 10.08C46.5576 9.952 46.7123 9.792 46.8296 9.6C46.947 9.39733 47.0056 9.168 47.0056 8.912C47.0056 8.496 46.8723 8.176 46.6056 7.952C46.339 7.728 46.0083 7.54133 45.6136 7.392C45.219 7.232 44.787 7.08267 44.3176 6.944C43.8483 6.80533 43.4163 6.61867 43.0216 6.384C42.627 6.13867 42.2963 5.81867 42.0296 5.424C41.763 5.01867 41.6296 4.48 41.6296 3.808C41.6296 3.22133 41.747 2.71467 41.9816 2.288C42.227 1.86133 42.5416 1.50933 42.9256 1.232C43.3203 0.943999 43.7683 0.730666 44.2696 0.591999C44.771 0.453333 45.283 0.384 45.8056 0.384C46.403 0.384 46.979 0.474666 47.5336 0.655999C48.099 0.837333 48.6056 1.136 49.0536 1.552L47.5816 3.104Z" fill="#4535AA"/>
</svg>
