<svg width="89" height="27" viewBox="0 0 89 27" fill="none" xmlns="http://www.w3.org/2000/svg">
<g clip-path="url(#clip0)">
<path d="M7.845 5.484C8.91067 5.47845 9.95753 5.7648 10.872 6.312C11.8323 6.89345 12.6125 7.72976 13.126 8.728C13.7283 9.92652 14.0221 11.2563 13.981 12.597C14.0165 13.959 13.7232 15.3094 13.126 16.534C12.6093 17.5793 11.8097 18.4586 10.818 19.072C9.84893 19.6603 8.73461 19.9658 7.601 19.954C6.81409 19.9465 6.03969 19.7562 5.339 19.398C4.62673 19.0555 3.98629 18.5804 3.452 17.998V26.061H0V5.837H3.447V8.145C3.86306 7.38316 4.45988 6.73518 5.185 6.258C5.97173 5.73421 6.90007 5.46408 7.845 5.484ZM6.977 8.928C6.36545 8.92681 5.76494 9.09093 5.239 9.403C4.68897 9.72677 4.23454 10.1905 3.922 10.747C3.57304 11.3862 3.40858 12.1098 3.447 12.837V14.828C3.91778 15.3177 4.45342 15.7407 5.039 16.085C5.60222 16.4172 6.24514 16.59 6.899 16.585C7.5597 16.599 8.20724 16.3991 8.745 16.015C9.27131 15.6333 9.69184 15.124 9.967 14.535C10.2564 13.9291 10.4047 13.2655 10.401 12.594C10.4284 11.6383 10.0937 10.7075 9.464 9.988C9.15395 9.63802 8.76996 9.36135 8.33983 9.17802C7.9097 8.99469 7.44419 8.90929 6.977 8.928ZM29.377 5.833V14.005C29.4068 15.1062 29.1246 16.1933 28.563 17.141C28.03 18.0098 27.2631 18.711 26.35 19.164C25.3664 19.6464 24.2824 19.8884 23.187 19.87C22.0828 19.8903 20.9895 19.6483 19.997 19.164C19.0858 18.7131 18.3225 18.0112 17.797 17.141C17.2441 16.1903 16.9671 15.1044 16.997 14.005V5.833H20.472L20.499 13.38C20.4312 14.2405 20.6933 15.0946 21.232 15.769C21.4827 16.0323 21.7869 16.2388 22.1241 16.3745C22.4614 16.5103 22.8238 16.5722 23.187 16.556C23.5478 16.5695 23.9073 16.5063 24.2419 16.3706C24.5765 16.235 24.8785 16.0299 25.128 15.769C25.6754 15.0986 25.943 14.2428 25.875 13.38V5.833H29.377ZM36.761 11.887V19.543H33.311V5.833H36.759V8.412C37.229 7.601 37.157 11.128 36.759 11.891L36.761 11.887ZM52.453 5.48C53.5187 5.47445 54.5655 5.7608 55.48 6.308C56.4397 6.89097 57.2189 7.72869 57.731 8.728C58.3333 9.92652 58.6271 11.2563 58.586 12.597C58.6215 13.959 58.3282 15.3094 57.731 16.534C57.2143 17.5793 56.4146 18.4586 55.423 19.072C54.4539 19.6603 53.3396 19.9658 52.206 19.954C51.4174 19.9473 50.6412 19.757 49.939 19.398C49.2267 19.0555 48.5863 18.5804 48.052 17.998V26.061H44.605V5.837H48.053V8.145C48.4691 7.38316 49.0659 6.73518 49.791 6.258C50.5777 5.73421 51.5061 5.46408 52.451 5.484L52.453 5.48ZM51.582 8.928C50.9704 8.92681 50.3699 9.09093 49.844 9.403C49.294 9.72677 48.8395 10.1905 48.527 10.747C48.178 11.3862 48.0136 12.1098 48.052 12.837V14.828C48.5212 15.3174 49.0552 15.7403 49.639 16.085C50.2022 16.4172 50.8451 16.59 51.499 16.585C52.1597 16.599 52.8072 16.3991 53.345 16.015C53.8713 15.6333 54.2918 15.124 54.567 14.535C54.8563 13.9291 55.0047 13.2655 55.001 12.594C55.0284 11.6383 54.6937 10.7075 54.064 9.988C53.7545 9.63869 53.3713 9.36241 52.9421 9.17911C52.5129 8.99581 52.0484 8.91004 51.582 8.928ZM65.319 0V19.547H61.871V0H65.319ZM75.527 5.484C76.7385 5.45141 77.9356 5.752 78.988 6.353C79.9463 6.92116 80.7194 7.75476 81.214 8.753C81.748 9.85635 82.0133 11.0705 81.988 12.296V13.762H72.052C72.2104 14.6475 72.6945 15.4416 73.409 15.988C74.1745 16.5629 75.1131 16.8599 76.07 16.83C77.0091 16.8417 77.9383 16.6363 78.785 16.23C79.4838 15.9061 80.1401 15.4973 80.739 15.013L80.712 18.213C80.1226 18.6872 79.4691 19.0757 78.771 19.367C77.8783 19.7631 76.9106 19.9623 75.934 19.951C74.6399 19.9669 73.3635 19.649 72.228 19.028C71.136 18.4328 70.2186 17.5623 69.567 16.503C68.8966 15.3997 68.5529 14.1288 68.576 12.838C68.5621 11.56 68.8717 10.2992 69.476 9.173C70.0563 8.08756 70.9041 7.1682 71.939 6.502C73.0088 5.81701 74.2569 5.46289 75.527 5.484ZM75.446 8.497C74.6565 8.47421 73.8884 8.756 73.301 9.284C72.6967 9.85215 72.2798 10.591 72.106 11.402H78.676C78.6707 10.9796 78.5702 10.5639 78.3822 10.1856C78.1942 9.80736 77.9235 9.4763 77.59 9.217C76.9734 8.74889 76.2202 8.49596 75.446 8.497ZM86.767 15.691C87.0525 15.6869 87.3358 15.7413 87.5994 15.8508C87.8631 15.9604 88.1015 16.1228 88.3 16.328C88.5055 16.5265 88.6682 16.7651 88.7779 17.0289C88.8876 17.2928 88.9421 17.5763 88.938 17.862C88.9421 18.1477 88.8876 18.4312 88.7779 18.6951C88.6682 18.9589 88.5055 19.1975 88.3 19.396C88.1015 19.6015 87.8629 19.7642 87.5991 19.8739C87.3353 19.9836 87.0517 20.0381 86.766 20.034C86.4803 20.0381 86.1968 19.9836 85.9329 19.8739C85.6691 19.7642 85.4305 19.6015 85.232 19.396C85.0265 19.1975 84.8638 18.9589 84.7541 18.6951C84.6444 18.4312 84.5899 18.1477 84.594 17.862C84.59 17.5762 84.6447 17.2926 84.7546 17.0288C84.8645 16.765 85.0273 16.5264 85.233 16.328C85.4317 16.1228 85.6703 15.9606 85.9342 15.8512C86.198 15.7418 86.4814 15.6866 86.767 15.691Z" fill="white"/>
<path d="M34.2263 12.1233C34.2378 12.0612 35.2057 5.70353 42.557 6.45446L42.5458 6.46096C42.1503 8.29192 41.0662 9.90081 39.5177 10.9548C37.9691 12.0087 36.0747 12.4271 34.2263 12.1233Z" fill="white"/>
<path d="M34.5921 11.8748C34.6007 11.8156 35.4837 6.01494 42.189 6.69891L42.1795 6.70441C41.82 8.37543 40.8315 9.84413 39.4187 10.8062C38.0059 11.7683 36.2772 12.1499 34.5906 11.8722L34.5921 11.8748Z" fill="#ED639E"/>
</g>
<defs>
<clipPath id="clip0">
<rect width="88.939" height="26.063" fill="white"/>
</clipPath>
</defs>
</svg>
