<svg width="18" height="18" viewBox="0 0 18 18" fill="none" xmlns="http://www.w3.org/2000/svg">
<path d="M3.00001 4.99976L9.00001 7.99976L15 4.99976L9.00001 1.99976L3.00001 4.99976ZM9.48901 0.115762L17.482 4.19176C17.968 4.43976 18.143 5.00176 17.873 5.44876C17.7789 5.60232 17.6438 5.72662 17.483 5.80776L9.48901 9.88376C9.33735 9.96024 9.16987 10.0001 9.00001 10.0001C8.83016 10.0001 8.66267 9.96024 8.51101 9.88376L0.518011 5.80776C0.032011 5.55976 -0.142989 4.99776 0.127011 4.55076C0.221158 4.39721 0.356201 4.2729 0.517011 4.19176L8.51101 0.115762C8.81501 -0.0392383 9.18501 -0.0392383 9.48901 0.115762ZM9.48901 13.8818C9.33773 13.9595 9.1701 14 9.00001 14C8.82993 14 8.66229 13.9595 8.51101 13.8818L0.518011 9.73476C0.032011 9.48276 -0.142989 8.91076 0.127011 8.45676C0.22054 8.3012 0.355599 8.1748 0.517011 8.09176C0.633601 8.03111 0.763089 7.99945 0.894511 7.99945C1.02593 7.99945 1.15542 8.03111 1.27201 8.09176L8.51201 11.8468C8.81501 12.0048 9.18501 12.0048 9.48901 11.8468L16.728 8.09176C16.8445 8.03128 16.9738 7.99971 17.105 7.99971C17.2362 7.99971 17.3655 8.03128 17.482 8.09176C17.968 8.34376 18.143 8.91576 17.873 9.36976C17.7795 9.52533 17.6444 9.65173 17.483 9.73476L9.48901 13.8818ZM9.48901 17.8818C9.33773 17.9595 9.1701 18 9.00001 18C8.82993 18 8.66229 17.9595 8.51101 17.8818L0.518011 13.7348C0.032011 13.4828 -0.142989 12.9108 0.127011 12.4568C0.22054 12.3012 0.355599 12.1748 0.517011 12.0918C0.633601 12.0311 0.763089 11.9994 0.894511 11.9994C1.02593 11.9994 1.15542 12.0311 1.27201 12.0918L8.51201 15.8468C8.81501 16.0048 9.18501 16.0048 9.48901 15.8468L16.728 12.0918C16.8445 12.0313 16.9738 11.9997 17.105 11.9997C17.2362 11.9997 17.3655 12.0313 17.482 12.0918C17.968 12.3438 18.143 12.9158 17.873 13.3698C17.7795 13.5253 17.6444 13.6517 17.483 13.7348L9.48901 17.8818Z" fill="white" fill-opacity="0.3"/>
</svg>
